HIERARCHY
ROOT root
{
	OFFSET 0.000000 0.000000 0.000000
	CHANNELS 6 Xposition Yposition Zposition Zrotation Yrotation Xrotation
	JOINT lhip
	{
		OFFSET 0.058581 -0.082280 -0.017664
		CHANNELS 3 Zrotation Yrotation Xrotation
		JOINT lknee
		{
			OFFSET 0.043451 -0.386469 0.008037
			CHANNELS 3 Zrotation Yrotation Xrotation
			JOINT lankle
			{
				OFFSET -0.014790 -0.426874 -0.037428
				CHANNELS 3 Zrotation Yrotation Xrotation
				JOINT ltoe
				{
					OFFSET 0.041054 -0.060286 0.122042
					CHANNELS 3 Zrotation Yrotation Xrotation
					End Site
					{
						OFFSET 0.000000 0.000000 0.000000
					}
				}
			}
		}
	}
	JOINT rhip
	{
		OFFSET -0.060310 -0.090513 -0.013543
		CHANNELS 3 Zrotation Yrotation Xrotation
		JOINT rknee
		{
			OFFSET -0.043257 -0.383688 -0.004843
			CHANNELS 3 Zrotation Yrotation Xrotation
			JOINT rankle
			{
				OFFSET 0.019056 -0.420046 -0.034562
				CHANNELS 3 Zrotation Yrotation Xrotation
				JOINT rtoe
				{
					OFFSET -0.034840 -0.062106 0.130323
					CHANNELS 3 Zrotation Yrotation Xrotation
					End Site
					{
						OFFSET 0.000000 0.000000 0.000000
					}
				}
			}
		}
	}
	JOINT lowerback
	{
		OFFSET 0.004439 0.124404 -0.038385
		CHANNELS 3 Zrotation Yrotation Xrotation
		JOINT upperback
		{
			OFFSET 0.004488 0.137956 0.026820
			CHANNELS 3 Zrotation Yrotation Xrotation
			JOINT chest
			{
				OFFSET -0.002265 0.056032 0.002855
				CHANNELS 3 Zrotation Yrotation Xrotation
				JOINT lowerneck
				{
					OFFSET -0.013390 0.211636 -0.033468
					CHANNELS 3 Zrotation Yrotation Xrotation
					JOINT upperneck
					{
						OFFSET 0.010113 0.088937 0.050410
						CHANNELS 3 Zrotation Yrotation Xrotation
						End Site
						{
							OFFSET 0.000000 0.000000 0.000000
						}
					}
				}
				JOINT lclavicle
				{
					OFFSET 0.071702 0.114000 -0.018898
					CHANNELS 3 Zrotation Yrotation Xrotation
					JOINT lshoulder
					{
						OFFSET 0.122921 0.045205 -0.019046
						CHANNELS 3 Zrotation Yrotation Xrotation
						JOINT lelbow
						{
							OFFSET 0.255332 -0.015649 -0.022946
							CHANNELS 3 Zrotation Yrotation Xrotation
							JOINT lwrist
							{
								OFFSET 0.265709 0.012698 -0.007375
								CHANNELS 3 Zrotation Yrotation Xrotation
								End Site
								{
									OFFSET 0.000000 0.000000 0.000000
								}
							}
						}
					}
				}
				JOINT rclavicle
				{
					OFFSET -0.082954 0.112472 -0.023707
					CHANNELS 3 Zrotation Yrotation Xrotation
					JOINT rshoulder
					{
						OFFSET -0.113228 0.046853 -0.008472
						CHANNELS 3 Zrotation Yrotation Xrotation
						JOINT relbow
						{
							OFFSET -0.260127 -0.014369 -0.031269
							CHANNELS 3 Zrotation Yrotation Xrotation
							JOINT rwrist
							{
								OFFSET -0.269108 0.006794 -0.006027
								CHANNELS 3 Zrotation Yrotation Xrotation
								End Site
								{
									OFFSET 0.000000 0.000000 0.000000
								}
							}
						}
					}
				}
			}
		}
	}
}
MOTION
Frames: 11
Frame Time: 0.033333
0.142796 1.856616 0.950840 -0.707925 1.715401 89.819473 5.762158 -1.741025 -36.354521 -4.475273 10.662383 12.383228 4.473373 9.872923 -12.904562 0.000000 -0.000000 0.000000 3.777466 -5.960473 7.697721 6.443675 2.176317 9.042721 -0.550453 -8.973360 -27.279570 0.000000 -0.000000 0.000000 0.800531 7.425698 16.570729 0.119269 -1.637245 -8.192641 0.193385 1.082147 2.935793 3.479888 2.067665 -10.173439 -2.018012 -7.045069 10.513773 -27.136624 2.486251 -1.497112 -48.951274 -3.690887 6.080637 12.734951 -28.351039 -0.146716 3.787612 -1.883295 -8.445682 24.224595 7.986015 -1.915486 46.018461 15.374749 11.802683 -8.530172 26.825014 -2.259184 -2.285684 1.526894 -2.930203 
0.145608 1.825202 0.945766 -1.515809 1.963010 90.005140 4.462786 -0.865631 -36.597216 -3.646347 8.784950 8.483660 4.328106 9.623691 -12.159620 0.000000 -0.000000 0.000000 3.155777 -6.055161 10.354205 6.507331 4.294920 9.199684 0.053367 -7.672794 -25.915383 0.000000 -0.000000 0.000000 1.149853 7.766115 16.238409 -0.023070 -1.732742 -8.196174 0.112720 1.378727 2.610966 3.397239 2.323889 -9.683593 -2.403577 -6.783553 10.720103 -27.417184 3.100887 -1.735200 -49.187030 -2.619864 5.962853 12.695199 -26.737817 -0.184395 3.975324 -1.683718 -8.622995 24.736095 8.370895 -1.684242 45.672471 15.888261 12.076074 -7.891183 27.021908 -2.036593 -2.829706 1.749384 -2.329431 
0.147658 1.792467 0.940429 -2.865553 1.998922 90.775029 4.251521 -1.515023 -37.146032 -3.732450 8.960352 9.551440 5.036354 9.483462 -11.894846 0.000000 -0.000000 0.000000 2.216461 -6.731653 11.336960 6.430364 4.645105 10.027851 0.198750 -7.586213 -26.938166 0.000000 -0.000000 0.000000 0.633312 8.436466 14.951752 0.039200 -1.665807 -8.145235 0.088961 1.632148 2.269392 3.586781 2.729976 -9.671979 -2.604820 -6.370197 11.395104 -27.718951 3.734510 -1.590982 -49.166611 -1.739691 5.831244 12.817963 -24.821298 -0.196239 3.906700 -1.401247 -8.610881 25.288602 8.409580 -1.417614 46.076203 16.237986 12.643120 -7.550286 27.089667 -1.482346 -2.405497 1.601402 -2.474065 
0.154373 1.737625 0.935116 -3.899011 1.384750 91.572964 3.750258 -4.314273 -38.323528 -3.323949 7.920888 15.613433 6.116611 8.629955 -8.127780 0.000000 -0.000000 0.000000 1.696851 -4.049171 13.391092 5.482410 6.354466 11.992072 1.379122 -8.434980 -24.147575 0.000000 -0.000000 0.000000 -0.714820 8.650327 12.822833 0.401195 -1.687166 -7.452746 -0.233981 1.951639 1.620704 3.905931 2.524435 -9.582357 -2.499444 -5.475397 12.064558 -28.346659 4.741063 -1.219953 -49.054318 -1.092297 5.986122 13.533061 -21.377759 -0.743248 3.276762 -0.887071 -7.968803 25.991669 7.772224 -1.277733 47.394018 16.128936 14.579083 -7.646399 27.504610 -1.545011 -1.313447 1.397605 -2.994058 
0.156596 1.718520 0.934717 -4.032090 1.110397 91.809118 3.834118 -5.018129 -39.025589 -3.385796 8.406442 18.579517 6.647486 9.379250 -7.622643 0.000000 -0.000000 0.000000 1.172123 -3.970709 13.525582 5.406504 6.256663 13.508868 2.027536 -8.651829 -22.869655 0.000000 -0.000000 0.000000 -1.247300 8.800857 12.019719 0.481229 -1.853444 -7.318976 -0.282070 1.873716 1.682933 4.122640 2.492059 -9.795192 -2.420821 -5.284491 12.585896 -28.384807 5.053141 -1.096521 -49.126281 -1.049493 5.889153 13.809777 -20.466113 -0.909271 3.070229 -0.760793 -7.884699 26.217742 7.372799 -1.136402 48.102896 16.315206 14.983082 -7.881673 27.454342 -1.793038 -1.228135 1.495766 -2.938065 
0.161364 1.679461 0.937249 -3.737025 0.225552 92.117948 3.806718 -7.221320 -38.668800 -4.348941 9.807765 21.902059 8.258497 10.567458 -8.493261 0.000000 -0.000000 0.000000 0.208564 -3.179261 13.705200 5.244344 5.791504 17.188500 3.432231 -9.772783 -19.555787 0.000000 -0.000000 0.000000 -2.776797 8.986355 10.391941 0.676736 -2.222456 -6.995838 -0.270100 1.543833 1.747866 4.595740 2.095374 -9.863412 -2.311083 -5.052268 13.676636 -28.000914 5.439348 -0.534728 -49.469280 -1.259525 5.733551 14.124842 -18.988650 -0.808347 2.152047 -0.425485 -8.339970 26.363870 6.641072 -0.832062 49.976394 16.012172 15.883383 -8.595561 27.213252 -2.232221 -0.758262 1.301226 -3.556171 
0.166994 1.640683 0.943839 -2.735664 -0.432033 91.886337 2.320076 -8.998285 -35.868252 -5.064407 9.270454 22.386957 10.137738 11.425705 -10.285303 0.000000 -0.000000 0.000000 -1.184155 -3.008114 12.865829 6.069817 4.397503 23.361323 5.237684 -9.564409 -12.235349 0.000000 -0.000000 0.000000 -3.669603 8.679577 9.367913 0.765228 -2.441073 -6.912618 -0.329735 1.075984 1.876440 4.733777 1.365297 -8.779427 -2.444231 -4.471488 14.440718 -27.510767 5.311620 0.011176 -49.819203 -1.717111 5.614188 14.367032 -17.910930 -1.037658 0.986300 -0.330576 -8.803316 26.218930 5.949231 -0.590584 51.723653 15.363663 16.450081 -8.660393 26.736699 -2.658448 0.239208 1.138240 -4.195470 
0.173567 1.603208 0.952856 -1.684643 -0.820973 90.991803 -0.433376 -9.252145 -30.679971 -5.154200 7.062823 20.483508 12.151284 12.151139 -11.732504 0.000000 -0.000000 0.000000 -3.173152 -3.118440 10.756866 6.932673 1.695033 31.857763 7.057325 -8.818485 -1.911221 0.000000 -0.000000 0.000000 -3.786062 7.766737 9.058869 0.715983 -2.243643 -6.688558 -0.522295 0.855079 1.981416 4.524440 0.142172 -6.926615 -2.584430 -3.603870 14.563819 -27.226658 4.837030 0.385480 -49.731299 -2.322343 5.428714 14.277925 -18.157819 -1.246356 -0.700871 -0.204036 -8.304444 25.936633 5.430364 -0.493387 52.809881 14.828690 16.581271 -8.674550 26.758386 -2.737944 2.265332 0.894077 -3.186345 
0.180376 1.567739 0.961566 -1.047027 -1.038408 89.857066 -3.138676 -8.205908 -24.694968 -5.168635 3.960410 17.512387 13.522589 12.976402 -12.801383 0.000000 -0.000000 0.000000 -5.042533 -2.840199 7.215413 7.127747 -1.015945 41.511311 7.403239 -8.731844 6.133759 0.000000 -0.000000 0.000000 -3.566069 6.415719 9.266458 0.639822 -1.554872 -6.279155 -0.754143 0.923556 1.818896 4.246398 -0.967892 -5.063305 -2.917947 -2.862366 14.240112 -27.133397 4.320450 0.637011 -49.096619 -3.043421 5.266774 13.695240 -19.878893 -1.269060 -2.200405 -0.419816 -8.211635 25.298558 5.400219 -0.435319 53.404874 14.132096 16.719435 -8.333235 27.255056 -3.115135 3.803911 0.498834 -3.373900 
0.185850 1.535158 0.968148 -0.728526 -0.964105 88.892508 -4.677855 -7.014614 -19.681160 -5.232216 1.458441 15.356327 14.183320 13.622106 -13.823635 0.000000 -0.000000 0.000000 -6.460556 -2.772209 2.263683 6.393704 -3.770485 51.149586 6.475139 -10.060330 10.768496 0.000000 -0.000000 0.000000 -3.332993 4.994796 9.739899 0.671312 -0.616528 -5.849258 -0.714035 0.833248 1.678436 3.976246 -1.392974 -4.046380 -3.419455 -2.291492 14.092092 -27.156508 3.707820 0.837847 -48.223651 -3.920337 5.123431 13.192569 -22.530458 -1.646025 -2.448333 -0.736966 -8.004001 25.208649 5.755307 -0.495215 52.610152 14.173257 16.867959 -8.253720 28.606323 -3.523318 4.028155 0.999202 -2.143163 
0.189938 1.506274 0.972086 -0.372971 -0.696098 88.149046 -5.396652 -6.041552 -15.862719 -5.326723 -0.294197 14.276870 14.053864 14.285710 -15.403781 0.000000 -0.000000 0.000000 -7.286571 -2.871829 -3.842927 2.953628 -7.538413 59.275643 4.331049 -14.237525 6.580378 0.000000 -0.000000 0.000000 -2.949577 3.282827 10.816144 0.635433 0.186893 -5.814215 -0.748622 0.771463 1.367349 4.174572 -0.990928 -3.462969 -4.041843 -2.097315 14.610154 -26.825330 3.111443 0.964243 -47.342467 -4.970835 4.863918 12.825237 -25.547320 -1.668323 -1.812735 -0.773559 -7.715663 25.061551 6.616092 -0.687554 51.782910 14.610413 16.960622 -8.347507 30.373859 -3.964095 3.581607 1.262915 -1.035468 
